<svg width="117" height="40" viewBox="0 0 117 40" fill="none" xmlns="http://www.w3.org/2000/svg">
<rect width="40" height="40" fill="#1D79E4"/>
<path d="M10.2616 5.748C10.4776 6.084 10.9216 6.732 11.5936 7.692C12.2896 8.628 13.0816 9.72 13.9696 10.968C14.8816 12.216 15.8416 13.548 16.8496 14.964C17.8576 16.356 18.8056 17.676 19.6936 18.924C20.5816 20.148 21.3496 21.216 21.9976 22.128C22.6696 23.04 23.1136 23.64 23.3296 23.928C23.4016 23.808 23.6296 23.484 24.0136 22.956C24.3976 22.428 24.8656 21.768 25.4176 20.976C25.9936 20.184 26.6416 19.296 27.3616 18.312C28.0816 17.304 28.8136 16.284 29.5576 15.252C30.3256 14.196 31.0696 13.152 31.7896 12.12C32.5336 11.088 33.2176 10.152 33.8416 9.312C34.4656 8.448 34.9936 7.704 35.4256 7.08C35.8816 6.432 36.2056 5.988 36.3976 5.748V33H32.2216V18.384C32.2216 18.192 32.2336 17.988 32.2576 17.772C32.3056 17.556 32.3296 17.4 32.3296 17.304C32.1136 17.592 31.7656 18.084 31.2856 18.78C30.8296 19.452 30.2896 20.232 29.6656 21.12C29.0656 21.984 28.4296 22.908 27.7576 23.892C27.0856 24.852 26.4496 25.764 25.8496 26.628C25.2496 27.492 24.7216 28.26 24.2656 28.932C23.8096 29.58 23.4976 30.036 23.3296 30.3C23.1616 30.084 22.8256 29.64 22.3216 28.968C21.8416 28.272 21.2656 27.468 20.5936 26.556C19.9456 25.644 19.2496 24.672 18.5056 23.64C17.7856 22.608 17.1136 21.648 16.4896 20.76C15.8656 19.872 15.3256 19.116 14.8696 18.492C14.4136 17.844 14.1496 17.448 14.0776 17.304C14.0776 17.4 14.0896 17.556 14.1136 17.772C14.1616 17.988 14.1856 18.192 14.1856 18.384V33H10.2616V5.748ZM54.5163 31.236C53.7963 31.884 52.9203 32.4 51.8883 32.784C50.8563 33.168 49.8003 33.36 48.7203 33.36C47.6163 33.36 46.5723 33.156 45.5883 32.748C44.6283 32.316 43.7883 31.752 43.0683 31.056C42.3483 30.336 41.7723 29.496 41.3403 28.536C40.9323 27.576 40.7283 26.556 40.7283 25.476C40.7283 24.396 40.9323 23.376 41.3403 22.416C41.7723 21.456 42.3483 20.616 43.0683 19.896C43.7883 19.176 44.6163 18.612 45.5523 18.204C46.5123 17.772 47.5323 17.556 48.6123 17.556C50.3163 17.556 51.7923 18.072 53.0403 19.104C54.3123 20.112 55.2243 21.444 55.7763 23.1C55.0323 23.364 54.1803 23.688 53.2203 24.072C52.2603 24.456 51.2643 24.864 50.2323 25.296C49.2003 25.704 48.1683 26.112 47.1363 26.52C46.1043 26.928 45.1443 27.3 44.2563 27.636C44.6643 28.452 45.2523 29.112 46.0203 29.616C46.8123 30.096 47.6883 30.336 48.6483 30.336C49.2963 30.336 49.9443 30.216 50.5923 29.976C51.2643 29.736 51.8043 29.412 52.2123 29.004L54.5163 31.236ZM51.9243 22.38C51.6363 21.78 51.1803 21.336 50.5563 21.048C49.9323 20.736 49.2963 20.58 48.6483 20.58C47.9523 20.58 47.3043 20.712 46.7043 20.976C46.1283 21.24 45.6243 21.6 45.1923 22.056C44.7603 22.488 44.4123 22.992 44.1483 23.568C43.9083 24.144 43.7883 24.732 43.7883 25.332C43.7883 25.452 43.7883 25.536 43.7883 25.584C43.8123 25.632 43.8243 25.668 43.8243 25.692C44.4483 25.452 45.1203 25.188 45.8403 24.9C46.5843 24.588 47.3163 24.288 48.0363 24C48.7563 23.688 49.4523 23.4 50.1243 23.136C50.7963 22.848 51.3963 22.596 51.9243 22.38ZM57.4284 25.476C57.4284 24.3 57.6204 23.232 58.0044 22.272C58.4124 21.288 58.9644 20.448 59.6604 19.752C60.3564 19.056 61.1724 18.516 62.1084 18.132C63.0684 17.748 64.1004 17.556 65.2044 17.556C65.9484 17.556 66.6084 17.652 67.1844 17.844C67.7844 18.012 68.2884 18.228 68.6964 18.492C69.1284 18.732 69.4884 19.008 69.7764 19.32C70.0644 19.632 70.2804 19.908 70.4244 20.148V5.028H73.5204V33H70.4244V31.884C70.4244 31.74 70.4364 31.584 70.4604 31.416C70.4844 31.224 70.4964 31.068 70.4964 30.948C70.2564 31.236 69.9684 31.524 69.6324 31.812C69.3204 32.076 68.9484 32.328 68.5164 32.568C68.0844 32.808 67.5804 33 67.0044 33.144C66.4524 33.288 65.8164 33.36 65.0964 33.36C63.8964 33.36 62.8164 33.156 61.8564 32.748C60.9204 32.316 60.1164 31.752 59.4444 31.056C58.7964 30.336 58.2924 29.496 57.9324 28.536C57.5964 27.576 57.4284 26.556 57.4284 25.476ZM60.5244 25.44C60.5244 26.136 60.6444 26.784 60.8844 27.384C61.1484 27.984 61.4964 28.5 61.9284 28.932C62.3604 29.364 62.8764 29.712 63.4764 29.976C64.0764 30.216 64.7364 30.336 65.4564 30.336C66.1764 30.336 66.8364 30.216 67.4364 29.976C68.0604 29.712 68.5884 29.364 69.0204 28.932C69.4764 28.476 69.8244 27.96 70.0644 27.384C70.3044 26.784 70.4244 26.136 70.4244 25.44C70.4244 24.744 70.3044 24.108 70.0644 23.532C69.8244 22.932 69.4764 22.416 69.0204 21.984C68.5884 21.552 68.0604 21.216 67.4364 20.976C66.8364 20.712 66.1764 20.58 65.4564 20.58C64.7364 20.58 64.0764 20.712 63.4764 20.976C62.8764 21.216 62.3604 21.552 61.9284 21.984C61.4964 22.416 61.1484 22.932 60.8844 23.532C60.6444 24.108 60.5244 24.744 60.5244 25.44ZM77.4466 12.192C77.4466 11.616 77.6506 11.136 78.0586 10.752C78.4906 10.368 78.9466 10.176 79.4266 10.176C79.9066 10.176 80.3506 10.368 80.7586 10.752C81.1666 11.136 81.3706 11.616 81.3706 12.192C81.3706 12.768 81.1666 13.248 80.7586 13.632C80.3506 13.992 79.9066 14.172 79.4266 14.172C78.9466 14.172 78.4906 13.992 78.0586 13.632C77.6506 13.248 77.4466 12.768 77.4466 12.192ZM80.9026 33H77.8426V17.952H80.9026V33ZM95.3054 29.292C95.6414 29.7 95.9534 30.096 96.2414 30.48C96.5534 30.84 96.8654 31.224 97.1774 31.632C96.5054 32.16 95.7494 32.58 94.9094 32.892C94.0694 33.204 93.1574 33.36 92.1734 33.36C91.0694 33.36 90.0254 33.156 89.0414 32.748C88.0814 32.316 87.2414 31.74 86.5214 31.02C85.8014 30.3 85.2254 29.46 84.7934 28.5C84.3854 27.54 84.1814 26.52 84.1814 25.44C84.1814 24.36 84.3854 23.34 84.7934 22.38C85.2254 21.42 85.8014 20.592 86.5214 19.896C87.2414 19.176 88.0814 18.612 89.0414 18.204C90.0254 17.772 91.0694 17.556 92.1734 17.556C93.1814 17.556 94.1054 17.712 94.9454 18.024C95.8094 18.336 96.5894 18.756 97.2854 19.284L95.3054 21.624C94.8974 21.288 94.4294 21.036 93.9014 20.868C93.3734 20.676 92.7974 20.58 92.1734 20.58C91.4534 20.58 90.7934 20.712 90.1934 20.976C89.5934 21.216 89.0654 21.552 88.6094 21.984C88.1774 22.416 87.8414 22.932 87.6014 23.532C87.3614 24.108 87.2414 24.744 87.2414 25.44C87.2414 26.136 87.3614 26.784 87.6014 27.384C87.8414 27.96 88.1774 28.476 88.6094 28.932C89.0654 29.364 89.5934 29.712 90.1934 29.976C90.7934 30.216 91.4534 30.336 92.1734 30.336C92.7974 30.336 93.3734 30.252 93.9014 30.084C94.4294 29.892 94.8974 29.628 95.3054 29.292ZM98.6306 25.44C98.6306 24.36 98.8346 23.34 99.2426 22.38C99.6746 21.42 100.251 20.592 100.971 19.896C101.691 19.176 102.531 18.612 103.491 18.204C104.475 17.772 105.531 17.556 106.659 17.556C107.787 17.556 108.831 17.772 109.791 18.204C110.775 18.612 111.615 19.176 112.311 19.896C113.031 20.592 113.583 21.42 113.967 22.38C114.375 23.34 114.579 24.36 114.579 25.44C114.579 26.52 114.375 27.54 113.967 28.5C113.583 29.46 113.031 30.3 112.311 31.02C111.615 31.74 110.775 32.316 109.791 32.748C108.831 33.156 107.775 33.36 106.623 33.36C105.519 33.36 104.475 33.168 103.491 32.784C102.531 32.4 101.691 31.86 100.971 31.164C100.251 30.468 99.6746 29.64 99.2426 28.68C98.8346 27.696 98.6306 26.616 98.6306 25.44ZM101.691 25.476C101.691 26.148 101.811 26.784 102.051 27.384C102.315 27.96 102.663 28.476 103.095 28.932C103.551 29.364 104.067 29.712 104.643 29.976C105.243 30.216 105.879 30.336 106.551 30.336C107.223 30.336 107.859 30.216 108.459 29.976C109.059 29.712 109.575 29.364 110.007 28.932C110.463 28.476 110.823 27.96 111.087 27.384C111.351 26.784 111.483 26.148 111.483 25.476C111.483 24.804 111.351 24.168 111.087 23.568C110.823 22.968 110.463 22.452 110.007 22.02C109.575 21.564 109.059 21.216 108.459 20.976C107.859 20.712 107.223 20.58 106.551 20.58C105.879 20.58 105.243 20.712 104.643 20.976C104.067 21.216 103.551 21.564 103.095 22.02C102.663 22.452 102.315 22.968 102.051 23.568C101.811 24.168 101.691 24.804 101.691 25.476Z" fill="white"/>
</svg>
