<svg width="500" height="480" viewBox="0 0 500 480" fill="none" xmlns="http://www.w3.org/2000/svg">
<path d="M489.258 240C489.258 372.139 382.139 479.258 250 479.258C117.861 479.258 10.7422 372.139 10.7422 240C10.7422 107.861 117.861 0.742188 250 0.742188C382.139 0.742188 489.258 107.861 489.258 240Z" fill="#1D79E4" fill-opacity="0.3"/>
<path d="M499.94 239.404C499.94 239.405 499.94 239.405 499.94 239.404C499.236 247.457 492.611 253.826 479.737 258.785C476.263 260.123 472.341 258.575 470.681 255.243C470.652 255.185 470.623 255.128 470.595 255.07C468.677 251.232 470.531 246.602 474.541 245.074C482.654 241.983 485.249 239.247 485.347 238.127C485.56 235.692 475.487 223.696 422.32 209.488C377.593 197.536 317.492 187.851 253.091 182.217C215.179 178.899 178.489 177.225 145.314 177.225C122.134 177.225 100.668 178.042 81.6974 179.689C26.8702 184.45 14.8673 194.515 14.6554 196.95C14.59 197.697 15.4933 199.346 18.3146 201.682C23.5812 206.044 20.504 214.609 13.6632 214.609C11.9728 214.609 10.3185 214.037 9.02453 212.95C2.47863 207.456 -0.469615 201.744 0.0616356 195.674C0.858511 186.562 9.23547 179.605 25.6691 174.408C38.8448 170.241 57.2696 167.108 80.4298 165.098C127.375 161.021 189.147 161.92 254.368 167.625C319.591 173.331 380.58 183.173 426.103 195.339C448.562 201.341 466.162 207.625 478.415 214.017C493.695 221.988 500.736 230.293 499.94 239.404Z" fill="#7EB7F9"/>
<path d="M399.867 229.371L334.746 400.312C329.262 414.71 311.824 420.284 299.006 411.737C293.202 407.868 289.369 401.666 288.504 394.745L282.285 344.991C282.285 344.991 281.514 319.838 271.468 300.505C262.349 282.956 237.298 282.775 228.535 300.505C220.387 316.991 217.896 343.564 217.896 343.564L211.498 394.745C210.633 401.666 206.8 407.868 200.996 411.737C188.177 420.283 170.74 414.709 165.256 400.312L100.135 229.37C90.1807 203.241 88.4796 174.687 95.2618 147.562L108.164 95.9531C114.189 71.8555 138.405 57.0234 162.609 62.6094L186.812 68.1943C196.176 70.3555 205.955 69.3818 214.804 65.6328C237.697 55.9336 262.307 55.9336 285.2 65.6328C294.05 69.3818 303.828 70.3555 313.192 68.1943L337.395 62.6094C361.598 57.0244 385.815 71.8555 391.84 95.9531L404.742 147.562C411.521 174.688 409.82 203.241 399.867 229.371Z" fill="#ECECF1"/>
<path d="M204.622 400.312C205.341 402.2 206.267 403.936 207.359 405.509C205.664 407.936 203.516 410.058 200.995 411.737C188.176 420.283 170.739 414.709 165.255 400.312L100.134 229.37C90.1798 203.241 88.4786 174.687 95.2608 147.561L108.163 95.953C114.188 71.8554 138.404 57.0233 162.608 62.6093L173.687 65.1659C161.096 70.6073 151.108 81.6474 147.531 95.953L134.629 147.561C127.848 174.687 129.549 203.241 139.502 229.37L204.622 400.312ZM318.877 394.746L312.658 344.992C312.658 344.992 311.887 319.839 301.841 300.506C295.83 288.939 267.05 283.971 250.234 287.28C258.61 287.428 266.974 291.857 271.467 300.506C281.514 319.839 282.284 344.992 282.284 344.992L288.503 394.746C289.368 401.667 293.201 407.869 299.005 411.738C308.165 417.845 319.683 416.741 327.512 410.361L327.514 410.36C322.759 406.478 319.646 400.895 318.877 394.746Z" fill="#D3D3D8"/>
<path d="M324.796 231.755C310.901 219.286 324.497 199.217 319.348 161.27C315.895 135.832 307.648 128.772 313.558 118.272C320.634 105.699 341.915 99.6884 356.081 106.123C383.177 118.431 375.838 171.582 375.064 176.742C371.141 202.928 355.686 237.023 337.325 237.07C330.869 237.087 326.06 232.89 324.796 231.755Z" fill="#FFF5F5"/>
<path d="M224.609 175.547C224.609 179.592 221.33 182.871 217.285 182.871H212.402V187.754C212.402 191.799 209.123 195.078 205.078 195.078C201.033 195.078 197.754 191.799 197.754 187.754V182.871H192.871C188.826 182.871 185.547 179.592 185.547 175.547C185.547 171.502 188.826 168.223 192.871 168.223H197.754V163.34C197.754 159.295 201.033 156.016 205.078 156.016C209.123 156.016 212.402 159.295 212.402 163.34V168.223H217.285C221.33 168.223 224.609 171.502 224.609 175.547Z" fill="#1D79E4"/>
<path d="M205.078 231.887V265.69C205.078 271.913 200.033 276.958 193.811 276.958H160.007V310.762C160.007 316.984 154.962 322.029 148.739 322.029H114.936C108.713 322.029 103.668 316.984 103.668 310.762V276.958H69.8614C63.6387 276.958 58.5938 271.913 58.5938 265.69V231.887C58.5938 225.663 63.6387 220.618 69.8614 220.618H103.665V186.814C103.665 180.591 108.71 175.547 114.933 175.547H148.736C154.959 175.547 160.004 180.592 160.004 186.814V220.618H193.808C200.033 220.619 205.078 225.664 205.078 231.887ZM499.939 239.405C499.142 248.517 490.766 255.473 474.332 260.67C461.156 264.837 442.731 267.97 419.571 269.98C400.205 271.662 378.31 272.497 354.694 272.497C321.066 272.497 283.948 270.805 245.633 267.452C237.478 266.738 229.388 265.961 221.387 265.121C217.663 264.73 214.845 261.58 214.845 257.837C214.845 253.493 218.601 250.102 222.921 250.555C230.835 251.385 238.839 252.154 246.91 252.86C311.312 258.495 372.18 259.392 418.305 255.388C473.132 250.627 485.135 240.563 485.347 238.127C485.699 234.098 489.242 231.123 493.281 231.47C497.311 231.823 500.292 235.375 499.939 239.405ZM44.1026 214.981C19.9307 205.737 14.4961 198.745 14.6534 196.95C15.0059 192.921 12.0254 189.369 7.99516 189.016C3.9727 188.667 0.413128 191.644 0.0605886 195.673C-0.736286 204.784 6.30473 213.089 21.586 221.062C26.5108 223.631 32.2989 226.183 38.92 228.705C43.7032 230.527 48.8311 226.97 48.8311 221.852V221.828C48.8311 218.787 46.9444 216.068 44.1026 214.981Z" fill="#1D79E4"/>
<path d="M205.078 231.887V265.69C205.078 271.913 200.033 276.958 193.811 276.958H160.007V310.762C160.007 316.984 154.962 322.029 148.739 322.029H131.836V175.547H148.738C154.961 175.547 160.006 180.592 160.006 186.814V220.618H193.81C200.033 220.619 205.078 225.664 205.078 231.887ZM205.078 116.953C205.078 120.998 201.799 124.277 197.754 124.277H192.871V129.16C192.871 133.205 189.592 136.484 185.547 136.484C181.502 136.484 178.223 133.205 178.223 129.16V124.277H173.34C169.295 124.277 166.016 120.998 166.016 116.953C166.016 112.908 169.295 109.629 173.34 109.629H178.223V104.746C178.223 100.701 181.502 97.4219 185.547 97.4219C189.592 97.4219 192.871 100.701 192.871 104.746V109.629H197.754C201.799 109.629 205.078 112.908 205.078 116.953Z" fill="#7EB7F9"/>
</svg>
