<svg width="21" height="20" viewBox="0 0 21 20" fill="none" xmlns="http://www.w3.org/2000/svg">
<g clip-path="url(#clip0_5_87)">
<path d="M20.7888 5.88005C20.7419 4.81738 20.5701 4.0868 20.3239 3.45374C20.07 2.78176 19.6793 2.18014 19.1674 1.68002C18.6673 1.1721 18.0617 0.777435 17.3975 0.527447C16.7608 0.281274 16.034 0.109427 14.9713 0.0625732C13.9007 0.0117516 13.5608 0 10.8455 0C8.13008 0 7.7902 0.0117516 6.72356 0.0586052C5.66088 0.105459 4.9303 0.277459 4.2974 0.523479C3.62527 0.777435 3.02365 1.16814 2.52352 1.68002C2.01561 2.18014 1.62109 2.78573 1.37095 3.44992C1.12478 4.0868 0.952933 4.81341 0.906079 5.87609C0.855257 6.9467 0.843506 7.28658 0.843506 10.002C0.843506 12.7173 0.855257 13.0572 0.902111 14.1239C0.948965 15.1865 1.12096 15.9171 1.36714 16.5502C1.62109 17.2221 2.01561 17.8238 2.52352 18.3239C3.02365 18.8318 3.62924 19.2265 4.29343 19.4765C4.9303 19.7226 5.65691 19.8945 6.71974 19.9413C7.78623 19.9883 8.12627 19.9999 10.8416 19.9999C13.557 19.9999 13.8969 19.9883 14.9635 19.9413C16.0262 19.8945 16.7568 19.7226 17.3897 19.4765C18.7338 18.9568 19.7965 17.8941 20.3161 16.5502C20.5622 15.9133 20.7342 15.1865 20.781 14.1239C20.8279 13.0572 20.8396 12.7173 20.8396 10.002C20.8396 7.28658 20.8357 6.9467 20.7888 5.88005ZM18.9878 14.0457C18.9447 15.0225 18.7807 15.5499 18.6439 15.9015C18.3078 16.7728 17.6163 17.4643 16.745 17.8004C16.3934 17.9372 15.8621 18.1012 14.8892 18.1441C13.8343 18.1911 13.5179 18.2027 10.8494 18.2027C8.1809 18.2027 7.86056 18.1911 6.80948 18.1441C5.83273 18.1012 5.30528 17.9372 4.95365 17.8004C4.52006 17.6402 4.1254 17.3862 3.80505 17.0541C3.47295 16.7298 3.219 16.3391 3.05875 15.9055C2.92201 15.5539 2.75794 15.0225 2.71506 14.0497C2.66805 12.9948 2.65645 12.6783 2.65645 10.0097C2.65645 7.34122 2.66805 7.02087 2.71506 5.96995C2.75794 4.99319 2.92201 4.46575 3.05875 4.11412C3.219 3.68038 3.47296 3.28586 3.80902 2.96536C4.13318 2.63327 4.52388 2.37931 4.95762 2.21921C5.30925 2.08247 5.84066 1.9184 6.81345 1.87537C7.86834 1.82851 8.18487 1.81676 10.8532 1.81676C13.5257 1.81676 13.8421 1.82851 14.8932 1.87537C15.8699 1.9184 16.3974 2.08247 16.749 2.21921C17.1826 2.37931 17.5773 2.63327 17.8976 2.96536C18.2297 3.28967 18.4837 3.68038 18.6439 4.11412C18.7807 4.46575 18.9447 4.99701 18.9878 5.96995C19.0346 7.02484 19.0464 7.34122 19.0464 10.0097C19.0464 12.6783 19.0346 12.9908 18.9878 14.0457Z" fill="#1D79E4"/>
<path d="M10.8455 4.86414C8.00908 4.86414 5.70776 7.1653 5.70776 10.0019C5.70776 12.8384 8.00908 15.1396 10.8455 15.1396C13.682 15.1396 15.9832 12.8384 15.9832 10.0019C15.9832 7.1653 13.682 4.86414 10.8455 4.86414ZM10.8455 13.3346C9.00537 13.3346 7.51277 11.8421 7.51277 10.0019C7.51277 8.16159 9.00537 6.66914 10.8455 6.66914C12.6857 6.66914 14.1782 8.16159 14.1782 10.0019C14.1782 11.8421 12.6857 13.3346 10.8455 13.3346Z" fill="#1D79E4"/>
<path d="M17.3859 4.66109C17.3859 5.32345 16.8489 5.86052 16.1864 5.86052C15.524 5.86052 14.9869 5.32345 14.9869 4.66109C14.9869 3.99858 15.524 3.46167 16.1864 3.46167C16.8489 3.46167 17.3859 3.99858 17.3859 4.66109Z" fill="#1D79E4"/>
</g>
<defs>
<clipPath id="clip0_5_87">
<rect width="20" height="20" fill="white" transform="translate(0.80835)"/>
</clipPath>
</defs>
</svg>
