<svg width="21" height="21" viewBox="0 0 21 21" fill="none" xmlns="http://www.w3.org/2000/svg">
<g clip-path="url(#clip0_5_239)">
<path d="M20.7887 6.19548C20.7419 5.13281 20.57 4.40223 20.3239 3.76917C20.0699 3.09719 19.6792 2.49557 19.1673 1.99545C18.6672 1.48753 18.0616 1.09286 17.3974 0.842876C16.7607 0.596704 16.0339 0.424857 14.9713 0.378003C13.9006 0.327181 13.5608 0.31543 10.8454 0.31543C8.13002 0.31543 7.79014 0.327181 6.7235 0.374035C5.66082 0.420889 4.93024 0.592889 4.29733 0.838908C3.62521 1.09286 3.02359 1.48357 2.52346 1.99545C2.01555 2.49557 1.62103 3.10116 1.37089 3.76535C1.12472 4.40223 0.952872 5.12884 0.906018 6.19152C0.855196 7.26213 0.843445 7.60201 0.843445 10.3174C0.843445 13.0328 0.855196 13.3726 0.90205 14.4393C0.948904 15.502 1.1209 16.2325 1.36708 16.8656C1.62103 17.5376 2.01555 18.1392 2.52346 18.6393C3.02359 19.1472 3.62917 19.5419 4.29337 19.7919C4.93024 20.0381 5.65685 20.2099 6.71968 20.2568C7.78617 20.3038 8.12621 20.3154 10.8416 20.3154C13.557 20.3154 13.8968 20.3038 14.9635 20.2568C16.0262 20.2099 16.7567 20.0381 17.3896 19.7919C18.7337 19.2722 19.7964 18.2095 20.3161 16.8656C20.5621 16.2287 20.7341 15.502 20.781 14.4393C20.8278 13.3726 20.8396 13.0328 20.8396 10.3174C20.8396 7.60201 20.8356 7.26213 20.7887 6.19548ZM18.9877 14.3611C18.9447 15.3379 18.7806 15.8653 18.6439 16.217C18.3078 17.0883 17.6163 17.7798 16.745 18.1158C16.3934 18.2526 15.8621 18.4167 14.8892 18.4595C13.8343 18.5065 13.5179 18.5181 10.8494 18.5181C8.18084 18.5181 7.8605 18.5065 6.80942 18.4595C5.83267 18.4167 5.30522 18.2526 4.95359 18.1158C4.52 17.9556 4.12533 17.7016 3.80499 17.3695C3.47289 17.0452 3.21894 16.6545 3.05869 16.2209C2.92194 15.8693 2.75788 15.3379 2.71499 14.3651C2.66799 13.3102 2.65639 12.9937 2.65639 10.3252C2.65639 7.65665 2.66799 7.3363 2.71499 6.28538C2.75788 5.30862 2.92194 4.78118 3.05869 4.42954C3.21894 3.99581 3.47289 3.60129 3.80896 3.28079C4.13312 2.9487 4.52382 2.69474 4.95756 2.53464C5.30919 2.3979 5.8406 2.23383 6.81339 2.1908C7.86828 2.14394 8.18481 2.13219 10.8532 2.13219C13.5257 2.13219 13.842 2.14394 14.8931 2.1908C15.8699 2.23383 16.3973 2.3979 16.7489 2.53464C17.1825 2.69474 17.5772 2.9487 17.8976 3.28079C18.2296 3.6051 18.4836 3.99581 18.6439 4.42954C18.7806 4.78118 18.9447 5.31244 18.9877 6.28538C19.0346 7.34027 19.0463 7.65665 19.0463 10.3252C19.0463 12.9937 19.0346 13.3062 18.9877 14.3611Z" fill="white"/>
<path d="M10.8455 5.17957C8.00908 5.17957 5.70776 7.48073 5.70776 10.3173C5.70776 13.1538 8.00908 15.455 10.8455 15.455C13.682 15.455 15.9832 13.1538 15.9832 10.3173C15.9832 7.48073 13.682 5.17957 10.8455 5.17957ZM10.8455 13.65C9.00537 13.65 7.51277 12.1576 7.51277 10.3173C7.51277 8.47702 9.00537 6.98457 10.8455 6.98457C12.6857 6.98457 14.1782 8.47702 14.1782 10.3173C14.1782 12.1576 12.6857 13.65 10.8455 13.65Z" fill="white"/>
<path d="M17.3859 4.97652C17.3859 5.63888 16.8488 6.17595 16.1863 6.17595C15.524 6.17595 14.9869 5.63888 14.9869 4.97652C14.9869 4.31401 15.524 3.7771 16.1863 3.7771C16.8488 3.7771 17.3859 4.31401 17.3859 4.97652Z" fill="white"/>
</g>
<defs>
<clipPath id="clip0_5_239">
<rect width="20" height="20" fill="white" transform="translate(0.80835 0.31543)"/>
</clipPath>
</defs>
</svg>
