<svg width="187" height="61" viewBox="0 0 187 61" fill="none" xmlns="http://www.w3.org/2000/svg">
<rect y="0.31543" width="59.7299" height="60" fill="#1D79E4"/>
<path d="M11.1593 5.89543C11.5193 6.45543 12.2593 7.53543 13.3793 9.13543C14.5393 10.6954 15.8593 12.5154 17.3393 14.5954C18.8593 16.6754 20.4593 18.8954 22.1393 21.2554C23.8193 23.5754 25.3993 25.7754 26.8793 27.8554C28.3593 29.8954 29.6393 31.6754 30.7193 33.1954C31.8393 34.7154 32.5793 35.7154 32.9393 36.1954C33.0593 35.9954 33.4393 35.4554 34.0793 34.5754C34.7193 33.6954 35.4993 32.5954 36.4193 31.2754C37.3793 29.9554 38.4593 28.4754 39.6593 26.8354C40.8593 25.1554 42.0793 23.4554 43.3193 21.7354C44.5993 19.9754 45.8393 18.2354 47.0393 16.5154C48.2793 14.7954 49.4193 13.2354 50.4593 11.8354C51.4993 10.3954 52.3793 9.15543 53.0993 8.11543C53.8593 7.03543 54.3993 6.29543 54.7193 5.89543V51.3154H47.7593V26.9554C47.7593 26.6354 47.7793 26.2954 47.8193 25.9354C47.8993 25.5754 47.9393 25.3154 47.9393 25.1554C47.5793 25.6354 46.9993 26.4554 46.1993 27.6154C45.4393 28.7354 44.5393 30.0354 43.4993 31.5154C42.4993 32.9554 41.4393 34.4954 40.3193 36.1354C39.1993 37.7354 38.1393 39.2554 37.1393 40.6954C36.1393 42.1354 35.2593 43.4154 34.4993 44.5354C33.7393 45.6154 33.2193 46.3754 32.9393 46.8154C32.6593 46.4554 32.0993 45.7154 31.2593 44.5954C30.4593 43.4354 29.4993 42.0954 28.3793 40.5754C27.2993 39.0554 26.1393 37.4354 24.8993 35.7154C23.6993 33.9954 22.5793 32.3954 21.5393 30.9154C20.4993 29.4354 19.5993 28.1754 18.8393 27.1354C18.0793 26.0554 17.6393 25.3954 17.5193 25.1554C17.5193 25.3154 17.5393 25.5754 17.5793 25.9354C17.6593 26.2954 17.6993 26.6354 17.6993 26.9554V51.3154H11.1593V5.89543Z" fill="white"/>
<path d="M84.9172 48.3754C83.7171 49.4554 82.2571 50.3154 80.5371 50.9554C78.8171 51.5954 77.0571 51.9154 75.2571 51.9154C73.4171 51.9154 71.6771 51.5754 70.0371 50.8954C68.4371 50.1754 67.0371 49.2354 65.8371 48.0754C64.6371 46.8754 63.6771 45.4754 62.9571 43.8754C62.2771 42.2754 61.9371 40.5754 61.9371 38.7754C61.9371 36.9754 62.2771 35.2754 62.9571 33.6754C63.6771 32.0754 64.6371 30.6754 65.8371 29.4754C67.0371 28.2754 68.4171 27.3354 69.9771 26.6554C71.5771 25.9354 73.2771 25.5754 75.0771 25.5754C77.9171 25.5754 80.3771 26.4354 82.4571 28.1554C84.5772 29.8354 86.0972 32.0554 87.0172 34.8154C85.7771 35.2554 84.3571 35.7954 82.7571 36.4354C81.1572 37.0754 79.4971 37.7554 77.7771 38.4754C76.0571 39.1554 74.3371 39.8354 72.6171 40.5154C70.8971 41.1954 69.2971 41.8154 67.8171 42.3754C68.4971 43.7354 69.4771 44.8354 70.7571 45.6754C72.0771 46.4754 73.5371 46.8754 75.1371 46.8754C76.2171 46.8754 77.2971 46.6754 78.3771 46.2754C79.4971 45.8754 80.3971 45.3354 81.0771 44.6554L84.9172 48.3754ZM80.5971 33.6154C80.1171 32.6154 79.3571 31.8754 78.3171 31.3954C77.2771 30.8754 76.2171 30.6154 75.1371 30.6154C73.9771 30.6154 72.8971 30.8354 71.8971 31.2754C70.9371 31.7154 70.0971 32.3154 69.3771 33.0754C68.6571 33.7954 68.0771 34.6354 67.6371 35.5954C67.2371 36.5554 67.0371 37.5354 67.0371 38.5354C67.0371 38.7354 67.0371 38.8754 67.0371 38.9554C67.0771 39.0354 67.0971 39.0954 67.0971 39.1354C68.1371 38.7354 69.2571 38.2954 70.4571 37.8154C71.6971 37.2954 72.9171 36.7954 74.1171 36.3154C75.3171 35.7954 76.4771 35.3154 77.5971 34.8754C78.7171 34.3954 79.7171 33.9754 80.5971 33.6154ZM89.7706 38.7754C89.7706 36.8154 90.0906 35.0354 90.7306 33.4354C91.4106 31.7954 92.3306 30.3954 93.4906 29.2354C94.6506 28.0754 96.0106 27.1754 97.5706 26.5354C99.1706 25.8954 100.891 25.5754 102.731 25.5754C103.971 25.5754 105.071 25.7354 106.031 26.0554C107.031 26.3354 107.871 26.6954 108.551 27.1354C109.271 27.5354 109.871 27.9954 110.351 28.5154C110.831 29.0354 111.191 29.4954 111.431 29.8954V4.69543H116.591V51.3154H111.431V49.4554C111.431 49.2154 111.451 48.9554 111.491 48.6754C111.531 48.3554 111.551 48.0954 111.551 47.8954C111.151 48.3754 110.671 48.8554 110.111 49.3354C109.591 49.7754 108.971 50.1954 108.251 50.5954C107.531 50.9954 106.691 51.3154 105.731 51.5554C104.811 51.7954 103.751 51.9154 102.551 51.9154C100.551 51.9154 98.7506 51.5754 97.1506 50.8954C95.5906 50.1754 94.2506 49.2354 93.1306 48.0754C92.0506 46.8754 91.2106 45.4754 90.6106 43.8754C90.0506 42.2754 89.7706 40.5754 89.7706 38.7754ZM94.9306 38.7154C94.9306 39.8754 95.1306 40.9554 95.5306 41.9554C95.9706 42.9554 96.5506 43.8154 97.2706 44.5354C97.9906 45.2554 98.8506 45.8354 99.8506 46.2754C100.851 46.6754 101.951 46.8754 103.151 46.8754C104.351 46.8754 105.451 46.6754 106.451 46.2754C107.491 45.8354 108.371 45.2554 109.091 44.5354C109.851 43.7754 110.431 42.9154 110.831 41.9554C111.231 40.9554 111.431 39.8754 111.431 38.7154C111.431 37.5554 111.231 36.4954 110.831 35.5354C110.431 34.5354 109.851 33.6754 109.091 32.9554C108.371 32.2354 107.491 31.6754 106.451 31.2754C105.451 30.8354 104.351 30.6154 103.151 30.6154C101.951 30.6154 100.851 30.8354 99.8506 31.2754C98.8506 31.6754 97.9906 32.2354 97.2706 32.9554C96.5506 33.6754 95.9706 34.5354 95.5306 35.5354C95.1306 36.4954 94.9306 37.5554 94.9306 38.7154ZM123.134 16.6354C123.134 15.6754 123.474 14.8754 124.154 14.2354C124.874 13.5954 125.634 13.2754 126.434 13.2754C127.234 13.2754 127.974 13.5954 128.654 14.2354C129.334 14.8754 129.674 15.6754 129.674 16.6354C129.674 17.5954 129.334 18.3954 128.654 19.0354C127.974 19.6354 127.234 19.9354 126.434 19.9354C125.634 19.9354 124.874 19.6354 124.154 19.0354C123.474 18.3954 123.134 17.5954 123.134 16.6354ZM128.894 51.3154H123.794V26.2354H128.894V51.3154ZM152.899 45.1354C153.459 45.8154 153.979 46.4754 154.459 47.1154C154.979 47.7154 155.499 48.3554 156.019 49.0354C154.899 49.9154 153.639 50.6154 152.239 51.1354C150.839 51.6554 149.319 51.9154 147.679 51.9154C145.839 51.9154 144.099 51.5754 142.459 50.8954C140.859 50.1754 139.459 49.2154 138.259 48.0154C137.059 46.8154 136.099 45.4154 135.379 43.8154C134.699 42.2154 134.359 40.5154 134.359 38.7154C134.359 36.9154 134.699 35.2154 135.379 33.6154C136.099 32.0154 137.059 30.6354 138.259 29.4754C139.459 28.2754 140.859 27.3354 142.459 26.6554C144.099 25.9354 145.839 25.5754 147.679 25.5754C149.359 25.5754 150.899 25.8354 152.299 26.3554C153.739 26.8754 155.039 27.5754 156.199 28.4554L152.899 32.3554C152.219 31.7954 151.439 31.3754 150.559 31.0954C149.679 30.7754 148.719 30.6154 147.679 30.6154C146.479 30.6154 145.379 30.8354 144.379 31.2754C143.379 31.6754 142.499 32.2354 141.739 32.9554C141.019 33.6754 140.459 34.5354 140.059 35.5354C139.659 36.4954 139.459 37.5554 139.459 38.7154C139.459 39.8754 139.659 40.9554 140.059 41.9554C140.459 42.9154 141.019 43.7754 141.739 44.5354C142.499 45.2554 143.379 45.8354 144.379 46.2754C145.379 46.6754 146.479 46.8754 147.679 46.8754C148.719 46.8754 149.679 46.7354 150.559 46.4554C151.439 46.1354 152.219 45.6954 152.899 45.1354ZM158.441 38.7154C158.441 36.9154 158.781 35.2154 159.461 33.6154C160.181 32.0154 161.141 30.6354 162.341 29.4754C163.541 28.2754 164.941 27.3354 166.541 26.6554C168.181 25.9354 169.941 25.5754 171.821 25.5754C173.701 25.5754 175.441 25.9354 177.041 26.6554C178.681 27.3354 180.081 28.2754 181.241 29.4754C182.441 30.6354 183.361 32.0154 184.001 33.6154C184.681 35.2154 185.021 36.9154 185.021 38.7154C185.021 40.5154 184.681 42.2154 184.001 43.8154C183.361 45.4154 182.441 46.8154 181.241 48.0154C180.081 49.2154 178.681 50.1754 177.041 50.8954C175.441 51.5754 173.681 51.9154 171.761 51.9154C169.921 51.9154 168.181 51.5954 166.541 50.9554C164.941 50.3154 163.541 49.4154 162.341 48.2554C161.141 47.0954 160.181 45.7154 159.461 44.1154C158.781 42.4754 158.441 40.6754 158.441 38.7154ZM163.541 38.7754C163.541 39.8954 163.741 40.9554 164.141 41.9554C164.581 42.9154 165.161 43.7754 165.881 44.5354C166.641 45.2554 167.501 45.8354 168.461 46.2754C169.461 46.6754 170.521 46.8754 171.641 46.8754C172.761 46.8754 173.821 46.6754 174.821 46.2754C175.821 45.8354 176.681 45.2554 177.401 44.5354C178.161 43.7754 178.761 42.9154 179.201 41.9554C179.641 40.9554 179.861 39.8954 179.861 38.7754C179.861 37.6554 179.641 36.5954 179.201 35.5954C178.761 34.5954 178.161 33.7354 177.401 33.0154C176.681 32.2554 175.821 31.6754 174.821 31.2754C173.821 30.8354 172.761 30.6154 171.641 30.6154C170.521 30.6154 169.461 30.8354 168.461 31.2754C167.501 31.6754 166.641 32.2554 165.881 33.0154C165.161 33.7354 164.581 34.5954 164.141 35.5954C163.741 36.5954 163.541 37.6554 163.541 38.7754Z" fill="#222222"/>
</svg>
