<svg width="21" height="17" viewBox="0 0 21 17" fill="none" xmlns="http://www.w3.org/2000/svg">
<path d="M20.4042 2.11418C19.6604 2.44043 18.8679 2.65668 18.0417 2.76168C18.8917 2.25418 19.5404 1.45668 19.8454 0.49543C19.0529 0.96793 18.1779 1.30168 17.2454 1.48793C16.4929 0.68668 15.4204 0.19043 14.2504 0.19043C11.9804 0.19043 10.1529 2.03293 10.1529 4.29168C10.1529 4.61668 10.1804 4.92918 10.2479 5.22668C6.83917 5.06043 3.82292 3.42668 1.79667 0.93793C1.44292 1.55168 1.23542 2.25418 1.23542 3.01043C1.23542 4.43043 1.96667 5.68918 3.05667 6.41793C2.39792 6.40543 1.75167 6.21418 1.20417 5.91293C1.20417 5.92543 1.20417 5.94168 1.20417 5.95793C1.20417 7.95043 2.62542 9.60543 4.48917 9.98668C4.15542 10.0779 3.79167 10.1217 3.41417 10.1217C3.15167 10.1217 2.88667 10.1067 2.63792 10.0517C3.16917 11.6754 4.67667 12.8692 6.46918 12.9079C5.07417 13.9992 3.30292 14.6567 1.38542 14.6567C1.04917 14.6567 0.726675 14.6417 0.404175 14.6004C2.22042 15.7717 4.37292 16.4404 6.69417 16.4404C14.2392 16.4404 18.3642 10.1904 18.3642 4.77293C18.3642 4.59168 18.3579 4.41668 18.3492 4.24293C19.1629 3.66543 19.8467 2.94418 20.4042 2.11418Z" fill="white"/>
</svg>
