<svg width="21" height="18" viewBox="0 0 21 18" fill="none" xmlns="http://www.w3.org/2000/svg">
<path d="M20.4042 2.79875C19.6604 3.125 18.8679 3.34125 18.0417 3.44625C18.8917 2.93875 19.5404 2.14125 19.8454 1.18C19.0529 1.6525 18.1779 1.98625 17.2454 2.1725C16.4929 1.37125 15.4204 0.875 14.2504 0.875C11.9804 0.875 10.1529 2.7175 10.1529 4.97625C10.1529 5.30125 10.1804 5.61375 10.2479 5.91125C6.83917 5.745 3.82292 4.11125 1.79667 1.6225C1.44292 2.23625 1.23542 2.93875 1.23542 3.695C1.23542 5.115 1.96667 6.37375 3.05667 7.1025C2.39792 7.09 1.75167 6.89875 1.20417 6.5975C1.20417 6.61 1.20417 6.62625 1.20417 6.6425C1.20417 8.635 2.62542 10.29 4.48917 10.6712C4.15542 10.7625 3.79167 10.8062 3.41417 10.8062C3.15167 10.8062 2.88667 10.7913 2.63792 10.7362C3.16917 12.36 4.67667 13.5538 6.46918 13.5925C5.07417 14.6838 3.30292 15.3412 1.38542 15.3412C1.04917 15.3412 0.726675 15.3263 0.404175 15.285C2.22042 16.4563 4.37292 17.125 6.69417 17.125C14.2392 17.125 18.3642 10.875 18.3642 5.4575C18.3642 5.27625 18.3579 5.10125 18.3492 4.9275C19.1629 4.35 19.8467 3.62875 20.4042 2.79875Z" fill="#1D79E4"/>
</svg>
